# xmcd CD database file
#
# Track frame offsets:
#	150
#	59550
#	77480
#	93448
#	116363
#	133835
#	152738
#
# Disc length: 2433 seconds
#
# Revision: 0
# Processed by: cddbd v1.5.2PL0 Copyright (c) Steve Scherf et al.
# Submitted via: CDex 1.70beta2
#
DISCID=54097f07
DTITLE=Paradox - Drifting Feather
DYEAR=1971
DGENRE=Jazz
TTITLE0=Malaguena
TTITLE1=Intymne zycie wuja Leona
TTITLE2=Czy sa swieze jaja, czyli na podworku pani Bronki
TTITLE3=Lotne piorko
TTITLE4=Pietrek
TTITLE5=Kokoszka babuni
TTITLE6=Ploteczki cioteczki
EXTD=YEAR: 1971
EXTT0=
EXTT1=
EXTT2=
EXTT3=
EXTT4=
EXTT5=
EXTT6=
PLAYORDER=
